<svg width="23" height="16" viewBox="0 0 23 16" fill="none" xmlns="http://www.w3.org/2000/svg">
<path d="M13.0137 7.38307L13.0155 7.81072C13.0155 9.58806 12.9115 11.2084 12.7547 12.2647L12.6173 12.9216C12.5409 13.2695 12.4405 13.6656 12.3357 13.8678C11.9523 14.6074 11.2027 15.0651 10.4003 15.0651H10.3305C9.80742 15.0478 8.70861 14.5888 8.70861 14.5729C6.94052 13.831 3.52942 11.592 1.95399 9.99577L1.49617 9.51655C1.37629 9.38666 1.2416 9.23295 1.15798 9.11313C0.878669 8.74329 0.739014 8.28565 0.739014 7.82802C0.739014 7.31716 0.895797 6.84223 1.19224 6.45377L1.6626 5.94615L1.76799 5.83782C3.19748 4.28797 6.92998 1.75367 8.88253 0.978081L9.17732 0.865106C9.53206 0.737954 10.0291 0.586295 10.3305 0.572327C10.7139 0.572327 11.0801 0.66146 11.4293 0.837065C11.8654 1.08318 12.2132 1.47164 12.4055 1.92928C12.5281 2.2459 12.7204 3.19709 12.7204 3.21439C12.8968 4.17346 12.999 5.68684 13.0137 7.38307ZM22.4781 7.81924C22.4781 8.83163 21.6652 9.65245 20.6626 9.65245L16.195 9.25734C15.4084 9.25734 14.7707 8.61345 14.7707 7.81924C14.7707 7.02369 15.4084 6.38113 16.195 6.38113L20.6626 5.98602C21.6652 5.98602 22.4781 6.80684 22.4781 7.81924Z" fill="#C6FF00"/>
</svg>
